<?xml version="1.0" encoding="UTF-8" standalone="no"?>
<svg
   xmlns:dc="http://purl.org/dc/elements/1.1/"
   xmlns:cc="http://creativecommons.org/ns#"
   xmlns:rdf="http://www.w3.org/1999/02/22-rdf-syntax-ns#"
   xmlns:svg="http://www.w3.org/2000/svg"
   xmlns="http://www.w3.org/2000/svg"
   xmlns:sodipodi="http://sodipodi.sourceforge.net/DTD/sodipodi-0.dtd"
   xmlns:inkscape="http://www.inkscape.org/namespaces/inkscape"
   inkscape:version="1.0 (4035a4f, 2020-05-01)"
   sodipodi:docname="Pie_chart_LM_edited.svg"
   viewBox="0 0 672 672"
   height="672"
   width="672"
   xml:space="preserve"
   id="svg953"
   version="1.1"><metadata
     id="metadata959"><rdf:RDF><cc:Work
         rdf:about=""><dc:format>image/svg+xml</dc:format><dc:type
           rdf:resource="http://purl.org/dc/dcmitype/StillImage" /><dc:title></dc:title></cc:Work></rdf:RDF></metadata><defs
     id="defs957"><rect
       id="rect1599"
       height="52.688923"
       width="325.18945"
       y="214.21094"
       x="571.34551" /><rect
       id="rect1593"
       height="104.55458"
       width="418.21833"
       y="820.95682"
       x="522.77291" /><rect
       id="rect1648"
       height="590.48103"
       width="874.7342"
       y="36.1519"
       x="521.72153" /><rect
       id="rect1642"
       height="368.6076"
       width="546.53166"
       y="455.79748"
       x="-20.556963" /><rect
       id="rect1636"
       height="391.29115"
       width="515.34179"
       y="473.519"
       x="-15.594937" /><clipPath
       id="clipPath971"
       clipPathUnits="userSpaceOnUse"><path
         id="path969"
         d="M 59.04,73.44 H 473.76 V 444.96 H 59.04 Z" /></clipPath><clipPath
       id="clipPath989"
       clipPathUnits="userSpaceOnUse"><path
         id="path987"
         d="M 59.04,73.44 H 473.76 V 444.96 H 59.04 Z" /></clipPath><clipPath
       id="clipPath1007"
       clipPathUnits="userSpaceOnUse"><path
         id="path1005"
         d="M 59.04,73.44 H 473.76 V 444.96 H 59.04 Z" /></clipPath><clipPath
       id="clipPath1025"
       clipPathUnits="userSpaceOnUse"><path
         id="path1023"
         d="M 59.04,73.44 H 473.76 V 444.96 H 59.04 Z" /></clipPath><clipPath
       id="clipPath1043"
       clipPathUnits="userSpaceOnUse"><path
         id="path1041"
         d="M 59.04,73.44 H 473.76 V 444.96 H 59.04 Z" /></clipPath><clipPath
       id="clipPath1061"
       clipPathUnits="userSpaceOnUse"><path
         id="path1059"
         d="M 59.04,73.44 H 473.76 V 444.96 H 59.04 Z" /></clipPath><clipPath
       clipPathUnits="userSpaceOnUse"
       id="clipPath926"><path
         d="M 59.04,73.44 H 761.76 V 552.96 H 59.04 Z"
         id="path924" /></clipPath><clipPath
       clipPathUnits="userSpaceOnUse"
       id="clipPath944"><path
         d="M 59.04,73.44 H 761.76 V 552.96 H 59.04 Z"
         id="path942" /></clipPath><clipPath
       clipPathUnits="userSpaceOnUse"
       id="clipPath962"><path
         d="M 59.04,73.44 H 761.76 V 552.96 H 59.04 Z"
         id="path960" /></clipPath><clipPath
       clipPathUnits="userSpaceOnUse"
       id="clipPath980"><path
         d="M 59.04,73.44 H 761.76 V 552.96 H 59.04 Z"
         id="path978" /></clipPath><clipPath
       clipPathUnits="userSpaceOnUse"
       id="clipPath998"><path
         d="M 59.04,73.44 H 761.76 V 552.96 H 59.04 Z"
         id="path996" /></clipPath><clipPath
       clipPathUnits="userSpaceOnUse"
       id="clipPath1016"><path
         d="M 59.04,73.44 H 761.76 V 552.96 H 59.04 Z"
         id="path1014" /></clipPath><clipPath
       clipPathUnits="userSpaceOnUse"
       id="clipPath1034"><path
         d="M 59.04,73.44 H 761.76 V 552.96 H 59.04 Z"
         id="path1032" /></clipPath><clipPath
       clipPathUnits="userSpaceOnUse"
       id="clipPath1052"><path
         d="M 59.04,73.44 H 761.76 V 552.96 H 59.04 Z"
         id="path1050" /></clipPath><clipPath
       clipPathUnits="userSpaceOnUse"
       id="clipPath1070"><path
         d="M 59.04,73.44 H 761.76 V 552.96 H 59.04 Z"
         id="path1068" /></clipPath><clipPath
       clipPathUnits="userSpaceOnUse"
       id="clipPath1088"><path
         d="M 59.04,73.44 H 761.76 V 552.96 H 59.04 Z"
         id="path1086" /></clipPath><clipPath
       clipPathUnits="userSpaceOnUse"
       id="clipPath1237"><path
         d="M 59.04,73.44 H 761.76 V 552.96 H 59.04 Z"
         id="path1235" /></clipPath><clipPath
       clipPathUnits="userSpaceOnUse"
       id="clipPath1255"><path
         d="M 59.04,73.44 H 761.76 V 552.96 H 59.04 Z"
         id="path1253" /></clipPath><clipPath
       clipPathUnits="userSpaceOnUse"
       id="clipPath1273"><path
         d="M 59.04,73.44 H 761.76 V 552.96 H 59.04 Z"
         id="path1271" /></clipPath><clipPath
       clipPathUnits="userSpaceOnUse"
       id="clipPath1291"><path
         d="M 59.04,73.44 H 761.76 V 552.96 H 59.04 Z"
         id="path1289" /></clipPath><clipPath
       clipPathUnits="userSpaceOnUse"
       id="clipPath1309"><path
         d="M 59.04,73.44 H 761.76 V 552.96 H 59.04 Z"
         id="path1307" /></clipPath><clipPath
       clipPathUnits="userSpaceOnUse"
       id="clipPath1327"><path
         d="M 59.04,73.44 H 761.76 V 552.96 H 59.04 Z"
         id="path1325" /></clipPath><clipPath
       clipPathUnits="userSpaceOnUse"
       id="clipPath1345"><path
         d="M 59.04,73.44 H 761.76 V 552.96 H 59.04 Z"
         id="path1343" /></clipPath><clipPath
       clipPathUnits="userSpaceOnUse"
       id="clipPath1363"><path
         d="M 59.04,73.44 H 761.76 V 552.96 H 59.04 Z"
         id="path1361" /></clipPath><clipPath
       clipPathUnits="userSpaceOnUse"
       id="clipPath1381"><path
         d="M 59.04,73.44 H 761.76 V 552.96 H 59.04 Z"
         id="path1379" /></clipPath><clipPath
       clipPathUnits="userSpaceOnUse"
       id="clipPath1399"><path
         d="M 59.04,73.44 H 761.76 V 552.96 H 59.04 Z"
         id="path1397" /></clipPath><clipPath
       clipPathUnits="userSpaceOnUse"
       id="clipPath1641"><path
         d="M 59.04,73.44 H 761.76 V 552.96 H 59.04 Z"
         id="path1639" /></clipPath><clipPath
       clipPathUnits="userSpaceOnUse"
       id="clipPath1659"><path
         d="M 59.04,73.44 H 761.76 V 552.96 H 59.04 Z"
         id="path1657" /></clipPath><clipPath
       clipPathUnits="userSpaceOnUse"
       id="clipPath1677"><path
         d="M 59.04,73.44 H 761.76 V 552.96 H 59.04 Z"
         id="path1675" /></clipPath><clipPath
       clipPathUnits="userSpaceOnUse"
       id="clipPath1695"><path
         d="M 59.04,73.44 H 761.76 V 552.96 H 59.04 Z"
         id="path1693" /></clipPath><clipPath
       clipPathUnits="userSpaceOnUse"
       id="clipPath1713"><path
         d="M 59.04,73.44 H 761.76 V 552.96 H 59.04 Z"
         id="path1711" /></clipPath><clipPath
       clipPathUnits="userSpaceOnUse"
       id="clipPath1731"><path
         d="M 59.04,73.44 H 761.76 V 552.96 H 59.04 Z"
         id="path1729" /></clipPath></defs><sodipodi:namedview
     inkscape:current-layer="g961"
     inkscape:window-maximized="0"
     inkscape:window-y="23"
     inkscape:window-x="89"
     inkscape:cy="343.2531"
     inkscape:cx="345.23045"
     inkscape:zoom="0.62932504"
     showgrid="false"
     id="namedview955"
     inkscape:window-height="855"
     inkscape:window-width="1293"
     inkscape:pageshadow="2"
     inkscape:pageopacity="0"
     guidetolerance="10"
     gridtolerance="10"
     objecttolerance="10"
     borderopacity="1"
     bordercolor="#666666"
     pagecolor="#ffffff"
     inkscape:document-rotation="0" /><g
     transform="matrix(1.3333333,0,0,-1.3333333,0,672)"
     inkscape:label="Pie_chart_LM"
     inkscape:groupmode="layer"
     id="g961"><g
       style="fill:#e2ff00;fill-opacity:1"
       transform="translate(-166.16121,-85.865274)"
       id="g1689"><g
         style="fill:#e2ff00;fill-opacity:1"
         clip-path="url(#clipPath1695)"
         id="g1691"><path
           id="path1697"
           style="fill:#e2ff00;fill-opacity:1;fill-rule:nonzero;stroke:#000000;stroke-width:0.75;stroke-linecap:round;stroke-linejoin:round;stroke-miterlimit:10;stroke-dasharray:none;stroke-opacity:1"
           d="m 487.95,373.69 -0.71,0.9 -76.84,-61.39 z" /><path
           id="path1699"
           style="fill:#e2ff00;stroke:#000000;stroke-width:0.75;stroke-linecap:round;stroke-linejoin:round;stroke-miterlimit:10;stroke-dasharray:none;stroke-opacity:1;fill-opacity:1"
           d="m 487.59,374.14 3.86,3.05" /></g></g><g
       style="fill:#d40000"
       transform="translate(-197.7788,-119.13081)"
       id="g1303"><g
         style="fill:#d40000"
         clip-path="url(#clipPath1309)"
         id="g1305"><path
           id="path1311"
           style="fill:#d40000;fill-opacity:1;fill-rule:nonzero;stroke:#000000;stroke-width:0.75;stroke-linecap:round;stroke-linejoin:round;stroke-miterlimit:10;stroke-dasharray:none;stroke-opacity:1"
           d="m 549.1,368 -1.31,3.21 L 410.4,313.2 Z" /><path
           id="path1313"
           style="fill:#d40000;stroke:#000000;stroke-width:0.75;stroke-linecap:round;stroke-linejoin:round;stroke-miterlimit:10;stroke-dasharray:none;stroke-opacity:1"
           d="m 548.45,369.61 6.91,2.82" /></g></g><g
       style="fill:#ffaaaa"
       transform="translate(-197.7788,-119.13081)"
       id="g1285"><g
         style="fill:#ffaaaa"
         clip-path="url(#clipPath1291)"
         id="g1287"><path
           id="path1293"
           style="fill:#ffaaaa;fill-opacity:1;fill-rule:nonzero;stroke:#000000;stroke-width:0.75;stroke-linecap:round;stroke-linejoin:round;stroke-miterlimit:10;stroke-dasharray:none;stroke-opacity:1"
           d="m 555.16,349.06 -1.74,6.4 -2.02,6.32 -2.3,6.22 -138.7,-54.8 z" /><path
           id="path1295"
           style="fill:#ffaaaa;stroke:#000000;stroke-width:0.75;stroke-linecap:round;stroke-linejoin:round;stroke-miterlimit:10;stroke-dasharray:none;stroke-opacity:1"
           d="m 552.44,358.63 7.11,2.27" /></g></g><g
       style="fill:#ff2a2a"
       transform="translate(-197.7788,-119.13081)"
       id="g1321"><g
         style="fill:#ff2a2a"
         clip-path="url(#clipPath1327)"
         id="g1323"><path
           id="path1329"
           style="fill:#ff2a2a;fill-opacity:1;fill-rule:nonzero;stroke:#000000;stroke-width:0.75;stroke-linecap:round;stroke-linejoin:round;stroke-miterlimit:10;stroke-dasharray:none;stroke-opacity:1"
           d="m 547.79,371.21 -2.9,6.42 -3.19,6.29 -131.3,-70.72 z" /><path
           id="path1331"
           style="fill:#ff2a2a;stroke:#000000;stroke-width:0.75;stroke-linecap:round;stroke-linejoin:round;stroke-miterlimit:10;stroke-dasharray:none;stroke-opacity:1"
           d="m 544.89,377.63 6.73,3.23" /></g></g><g
       id="g963" /><path
       id="path973"
       style="fill:#cc1030;fill-opacity:1;fill-rule:nonzero;stroke:#000000;stroke-width:0.75;stroke-linecap:round;stroke-linejoin:round;stroke-miterlimit:10;stroke-dasharray:none;stroke-opacity:1"
       d="m 309.61826,189.77121 -0.65939,4.5936 -0.80697,4.56493 -0.96446,4.53501 -1.12071,4.49517 -1.26703,4.45657 -1.41336,4.41798 -1.56834,4.36821 -1.71218,4.30978 -1.85474,4.24141 -1.99982,4.19291 -2.13989,4.1047 -2.27379,4.04751 -2.40395,3.96056 -2.54402,3.87236 -2.67542,3.79533 -111.11662,-81.15667 z" /><text
       transform="scale(1,-1)"
       style="font-variant:normal;font-weight:normal;font-size:12px;font-family:Helvetica;-inkscape-font-specification:Helvetica;word-spacing:0px;writing-mode:lr-tb;fill:#000000;fill-opacity:1;fill-rule:nonzero;stroke:none;stroke-width:0.99975;stroke-miterlimit:10;stroke-dasharray:none;"
       id="text981"
       x="311.54047"
       y="-202.03076"><tspan
         style="font-style:normal;font-variant:normal;font-weight:bold;font-stretch:normal;font-family:Helvetica;-inkscape-font-specification:'Helvetica Bold';fill:#000000;"
         y="-202.03076"
         x="311.54047"
         sodipodi:role="line"
         id="tspan979">Plant Geno 8%</tspan><tspan
         id="tspan899"
         x="311.54047 320.87646 327.54846 334.22046 340.89246 344.22845 350.22845 356.90045 370.58044"
         y="-202.03076"
         sodipodi:role="line" /></text><text
       inkscape:transform-center-y="15.122363"
       inkscape:transform-center-x="107.74684"
       transform="scale(1,-1)"
       id="text905"
       y="-198.22658"
       x="398.07126"
       style="font-weight:bold;font-size:16px;line-height:1.25;font-family:Helvetica;-inkscape-font-specification:'Helvetica Bold';fill:#000000;stroke-width:0.75"
       xml:space="preserve"><tspan
         style="fill:#000000;stroke-width:0.75"
         y="-198.22658"
         x="398.07126"
         id="tspan903"
         sodipodi:role="line">***</tspan></text><text
       transform="scale(1,-1)"
       xml:space="preserve"
       style="font-weight:bold;font-size:16px;line-height:1.25;font-family:Helvetica;-inkscape-font-specification:'Helvetica Bold';stroke-width:0.75"
       x="363.10843"
       y="-153.91879"
       id="text905-6"><tspan
         sodipodi:role="line"
         id="tspan903-5"
         x="363.10843"
         y="-153.91879"
         style="stroke-width:0.75">***</tspan></text><text
       transform="scale(1,-1)"
       id="text905-0-7"
       y="-319.48209"
       x="229.01611"
       style="font-weight:bold;font-size:16px;line-height:1.25;font-family:Helvetica;-inkscape-font-specification:'Helvetica Bold';stroke-width:0.75"
       xml:space="preserve"><tspan
         style="stroke-width:0.75"
         y="-319.48209"
         x="229.01611"
         id="tspan903-3-6"
         sodipodi:role="line">*</tspan></text><g
       inkscape:transform-center-y="0.25325295"
       inkscape:transform-center-x="-18.021351"
       transform="rotate(7.2238308,896.66034,-532.11661)"
       id="g985"
       clip-path="url(#clipPath989)"><path
         d="m 386.79,325.83 -6.51,10.6 L 266.4,259.2 Z"
         style="fill:#ffff00;fill-opacity:1;fill-rule:nonzero;stroke:#000000;stroke-width:0.75;stroke-linecap:round;stroke-linejoin:round;stroke-miterlimit:10;stroke-dasharray:none;stroke-opacity:1"
         id="path991" /><path
         d="m 383.66,331.2 5.86,3.6"
         style="fill:none;stroke:#000000;stroke-width:0.75;stroke-linecap:round;stroke-linejoin:round;stroke-miterlimit:10;stroke-dasharray:none;stroke-opacity:1"
         id="path993" /></g><g
       transform="rotate(37.088916,441.92401,139.5152)"
       id="g995"><text
         id="text999"
         style="font-variant:normal;font-weight:normal;font-size:12px;font-family:Helvetica;-inkscape-font-specification:Helvetica;writing-mode:lr-tb;white-space:pre;inline-size:0;fill:#000000;fill-opacity:1;fill-rule:nonzero;stroke:none"
         transform="matrix(1,0,0,-1,395.38,334.21)"><tspan
           style="font-style:normal;font-variant:normal;font-weight:bold;font-stretch:normal;font-family:Helvetica;-inkscape-font-specification:'Helvetica Bold'"
           id="tspan997"
           y="0"
           x="0 3.336 9.3360004 16.007999 18.672001 25.344 28.68 42.360001 49.032001 52.368">Isolate1.4%</tspan></text></g><g
       transform="rotate(-33.805768,36.696631,385.59501)"
       style="fill:#00c500;fill-opacity:1"
       id="g1001"><g
         style="fill:#00c500;fill-opacity:1"
         clip-path="url(#clipPath1007)"
         id="g1003"><path
           id="path1009"
           style="fill:#00c500;fill-opacity:1;fill-rule:nonzero;stroke:#000000;stroke-width:0.75;stroke-linecap:round;stroke-linejoin:round;stroke-miterlimit:10;stroke-dasharray:none;stroke-opacity:1"
           d="m 380.28,336.43 -3.54,4.98 -3.75,4.81 -3.97,4.65 L 266.4,259.2 Z" /><path
           id="path1011"
           style="fill:#00c500;fill-opacity:1;stroke:#000000;stroke-width:0.75;stroke-linecap:round;stroke-linejoin:round;stroke-miterlimit:10;stroke-dasharray:none;stroke-opacity:1"
           d="m 374.89,343.84 5.43,4.23" /></g></g><g
       transform="translate(-82.936712,-190.68356)"
       id="g1013"><text
         id="text1017"
         style="font-variant:normal;font-weight:normal;font-size:12px;font-family:Helvetica;-inkscape-font-specification:Helvetica;writing-mode:lr-tb;fill:#000000;fill-opacity:1;fill-rule:nonzero;stroke:none"
         transform="matrix(1,0,0,-1,385.74,349.28)"><tspan
           style="font-style:normal;font-variant:normal;font-weight:bold;font-stretch:normal;font-family:Helvetica;-inkscape-font-specification:'Helvetica Bold'"
           id="tspan1015"
           sodipodi:role="line"
           y="0"
           x="0 5.8920002 9.7679996 16.08 29.087999 35.759998 39.096001">Tray2.1%</tspan></text></g><g
       transform="rotate(-33.385772,32.768264,387.25185)"
       id="g1019"><g
         clip-path="url(#clipPath1025)"
         id="g1021"><path
           id="path1027"
           style="fill:#00ffff;fill-opacity:1;fill-rule:nonzero;stroke:#000000;stroke-width:0.75;stroke-linecap:round;stroke-linejoin:round;stroke-miterlimit:10;stroke-dasharray:none;stroke-opacity:1"
           d="m 369.02,350.87 -2.18,2.38 L 266.4,259.2 Z" /><path
           id="path1029"
           style="fill:none;stroke:#000000;stroke-width:0.75;stroke-linecap:round;stroke-linejoin:round;stroke-miterlimit:10;stroke-dasharray:none;stroke-opacity:1"
           d="m 367.94,352.07 5.07,4.64" /></g></g><g
       transform="translate(-75.848105,-185.01266)"
       id="g1031"><text
         id="text1035"
         style="font-variant:normal;font-weight:normal;font-size:12px;font-family:Helvetica;-inkscape-font-specification:Helvetica;writing-mode:lr-tb;fill:#000000;fill-opacity:1;fill-rule:nonzero;stroke:none"
         transform="matrix(1,0,0,-1,378.09,357.16)"><tspan
           style="font-style:normal;font-variant:normal;font-weight:bold;font-stretch:normal;font-family:Helvetica;-inkscape-font-specification:'Helvetica Bold'"
           id="tspan1033"
           sodipodi:role="line"
           y="0"
           x="0 7.3319998 9.9960003 19.992001 33.672001 40.344002 43.68">Time0.4%</tspan></text></g><g
       transform="translate(-245.45542,-61.191871)"
       id="g1049"><text
         id="text1053"
         style="font-variant:normal;font-weight:normal;font-size:12px;font-family:Helvetica;-inkscape-font-specification:Helvetica;writing-mode:lr-tb;fill:#000000;fill-opacity:1;fill-rule:nonzero;stroke:none"
         transform="matrix(1,0,0,-1,345.84,384.9)"><tspan
           style="font-style:normal;font-variant:normal;font-weight:bold;font-stretch:normal;font-family:Helvetica;-inkscape-font-specification:'Helvetica Bold'"
           id="tspan1051"
           sodipodi:role="line"
           y="0"
           x="0 9.3360004 16.007999 22.68 29.351999 32.688 38.688 45.360001 52.032001 55.368 58.703999 64.704002 71.375999 74.040001 80.711998 84.047997 97.727997 104.4 107.736">Genotype:Isolate8.5%</tspan></text></g><path
       id="path1063"
       style="fill:#e6e6e6;fill-opacity:1;fill-rule:nonzero;stroke:#000000;stroke-width:0.75;stroke-linecap:round;stroke-linejoin:round;stroke-miterlimit:10;stroke-dasharray:none;stroke-opacity:1"
       d="m 196.17014,284.74761 -4.19,1.16 -4.23,1.03 -4.26,0.9 -4.29,0.77 -4.3,0.62 -4.33,0.49 -4.34,0.36 -4.35,0.21 -4.35,0.08 -4.35,-0.06 -4.35,-0.2 -4.34,-0.33 -4.33,-0.47 -4.31,-0.61 -4.29,-0.75 -4.27,-0.88 -4.23,-1.01 -4.2,-1.15 -4.16,-1.28 -4.12001,-1.41 -4.07,-1.54 -4.02,-1.67 -3.969989,-1.8 -3.899998,-1.92 -3.850002,-2.04 -3.78,-2.16 -3.71,-2.28 -3.63,-2.4 -3.56,-2.51 -3.47,-2.63 -3.39,-2.73 -3.3,-2.83 -3.21,-2.94 -3.12,-3.05 -3.02,-3.13 -2.92,-3.23 -2.81,-3.33 -2.71,-3.41 -2.6,-3.49 -2.48,-3.57 -2.37,-3.65 -2.26,-3.73 -2.14,-3.79 -2.01,-3.86 -1.89,-3.92 -1.769996,-3.98 -1.64,-4.03 -1.51,-4.08 -1.39,-4.13 -1.25,-4.17 -1.11,-4.21 -0.99,-4.24 -0.85,-4.27 -0.71,-4.3 -0.58,-4.31 -0.44,-4.33 -0.31,-4.34 -0.17,-4.35 -0.02,-4.36 0.1,-4.35 0.25,-4.35 0.38,-4.33 0.53,-4.33 0.65,-4.3 0.8,-4.28 0.92,-4.25 1.07,-4.23 1.19,-4.18 1.33,-4.15 1.46,-4.1 1.58,-4.06 1.72,-4 1.839996,-3.94 1.96,-3.890001 2.08,-3.819999 2.21,-3.75 2.32,-3.690003 2.44,-3.6 2.55,-3.53 2.66,-3.45 2.77,-3.35 2.88,-3.27 2.97,-3.18 3.08,-3.08 3.17,-2.99 3.26,-2.88 3.36,-2.77 3.44,-2.67 3.52,-2.56 3.6,-2.45 3.68,-2.33 3.75,-2.21 3.810002,-2.100002 3.89,-1.97 3.939987,-1.85 4,-1.72 4.05,-1.59 4.10001,-1.47 4.14,-1.34 4.18,-1.2 4.22,-1.07 4.26,-0.94 4.27,-0.8 4.31,-0.67 4.32,-0.53 4.33,-0.39 4.35,-0.25 4.35,-0.12 4.36,0.02 4.35,0.16 4.34,0.29 4.33,0.43 4.32,0.57 4.29,0.71 4.28,0.84 4.24,0.98 4.21,1.11 4.17,1.24 4.13,1.37 4.09,1.5 4.03,1.64 3.99,1.76 3.92,1.88 3.87,2.01 3.79,2.130002 3.73,2.24 3.66,2.37 3.58,2.48 3.49,2.59 3.42,2.7 3.33,2.8 3.24,2.91 3.14,3.02 3.05,3.11 2.94,3.2 2.85,3.3 2.74,3.38 2.63,3.47 2.51,3.55 2.41,3.63 2.29,3.700003 2.17,3.78 2.05,3.84 1.93,3.9 1.8,3.96 1.68,4.02 1.55,4.07 1.42,4.11 1.29,4.16 1.16,4.2 1.02,4.23 0.89,4.26 0.75,4.29 0.62,4.31 0.48,4.33 0.34,4.34 0.21,4.35 0.07,4.35 h -137.6 z" /><g
       transform="translate(86.481016,-58.126584)"
       id="g1067"><text
         id="text1071"
         style="font-variant:normal;font-weight:normal;font-size:12px;font-family:Helvetica;-inkscape-font-specification:Helvetica;writing-mode:lr-tb;fill:#000000;fill-opacity:1;fill-rule:nonzero;stroke:none"
         transform="matrix(1,0,0,-1,44.46,164.38)"><tspan
           style="font-style:normal;font-variant:normal;font-weight:bold;font-stretch:normal;font-family:Helvetica;-inkscape-font-specification:'Helvetica Bold'"
           id="tspan1069"
           sodipodi:role="line"
           y="0"
           x="0 8.6639996 15.336 21.336 24 30.672001 37.344002 44.015999 46.68 59.688 66.360001 73.031998 76.367996">Residuals79.6%</tspan></text></g><text
       style="line-height:1.25;font-family:Helvetica;font-size:16.00000040000000112px;-inkscape-font-specification:'Helvetica Bold';font-weight:bold;white-space:pre;shape-inside:url(#rect1636);"
       id="text1634"
       xml:space="preserve" /><text
       style="line-height:1.25;font-family:Helvetica;font-size:16.00000040000000112px;-inkscape-font-specification:'Helvetica Bold';font-weight:bold;white-space:pre;shape-inside:url(#rect1642);"
       id="text1640"
       xml:space="preserve" /><text
       style="line-height:1.25;font-family:Helvetica;font-size:16.00000040000000112px;-inkscape-font-specification:'Helvetica Bold';font-weight:bold;white-space:pre;shape-inside:url(#rect1648);"
       id="text1646"
       xml:space="preserve" /><g
       transform="translate(-264.71566,-67.779032)"
       id="g1351"><text
         id="text1355"
         style="font-variant:normal;font-weight:normal;font-size:12px;font-family:Helvetica;-inkscape-font-specification:Helvetica;writing-mode:lr-tb;fill:#000000;fill-opacity:1;fill-rule:nonzero;stroke:none"
         transform="matrix(1,0,0,-1,551.28,394.11)"><tspan
           id="tspan1353"
           sodipodi:role="line"
           y="0"
           x="0 3.336 9.3360004 16.007999 18.672001 25.344 28.68 35.352001 38.688 45.251999 52.584 59.256001 68.592003 75.264 81.935997 88.608002 95.279999 101.952 108.624 118.44 124.44 138.12 144.79201 148.12801">Isolate:AT1G22410_myb1.4%</tspan></text></g><g
       transform="translate(-266.36219,-65.309239)"
       id="g1369"><text
         id="text1373"
         style="font-variant:normal;font-weight:normal;font-size:12px;font-family:Helvetica;-inkscape-font-specification:Helvetica;writing-mode:lr-tb;fill:#000000;fill-opacity:1;fill-rule:nonzero;stroke:none"
         transform="matrix(1,0,0,-1,544.63,404.41)"><tspan
           id="tspan1371"
           sodipodi:role="line"
           y="0"
           x="0 3.336 9.3360004 16.007999 18.672001 25.344 28.68 35.352001 38.688 45.251999 52.584 59.256001 68.592003 75.264 81.935997 88.608002 95.279999 101.952 108.624 114.936">Isolate:AT1G22410_eve 1%</tspan></text></g><g
       transform="rotate(22.488001,1733.8495,-562.20109)"
       id="g1589"><g
         id="g1339"
         transform="translate(189.7263,423.70983)"
         style="fill:#ffccaa"><g
           id="g1341"
           clip-path="url(#clipPath1345)"
           style="fill:#ffccaa"><path
             d="M 541.7,383.92 534.99,395.16 410.4,313.2 Z"
             style="fill:#ffccaa;fill-opacity:1;fill-rule:nonzero;stroke:#000000;stroke-width:0.75;stroke-linecap:round;stroke-linejoin:round;stroke-miterlimit:10;stroke-dasharray:none;stroke-opacity:1"
             id="path1347" /><path
             d="m 538.47,389.61 6.4,3.82"
             style="fill:#ffccaa;stroke:#000000;stroke-width:0.75;stroke-linecap:round;stroke-linejoin:round;stroke-miterlimit:10;stroke-dasharray:none;stroke-opacity:1"
             id="path1349" /></g></g><g
         id="g1357"
         transform="translate(189.7263,423.70983)"
         style="fill:#ff6600"><g
           id="g1359"
           clip-path="url(#clipPath1363)"
           style="fill:#ff6600"><path
             d="m 534.99,395.16 -5.25,7.48 L 410.4,313.2 Z"
             style="fill:#ff6600;fill-opacity:1;fill-rule:nonzero;stroke:#000000;stroke-width:0.75;stroke-linecap:round;stroke-linejoin:round;stroke-miterlimit:10;stroke-dasharray:none;stroke-opacity:1"
             id="path1365" /><path
             d="m 532.42,398.94 6.1,4.28"
             style="fill:#ff6600;stroke:#000000;stroke-width:0.75;stroke-linecap:round;stroke-linejoin:round;stroke-miterlimit:10;stroke-dasharray:none;stroke-opacity:1"
             id="path1367" /></g></g><g
         id="g1375"
         transform="translate(189.7263,423.70983)"
         style="fill:#ff7f2a"><g
           id="g1377"
           clip-path="url(#clipPath1381)"
           style="fill:#ff7f2a"><path
             d="M 529.74,402.64 521.26,412.95 410.4,313.2 Z"
             style="fill:#ff7f2a;fill-opacity:1;fill-rule:nonzero;stroke:#000000;stroke-width:0.75;stroke-linecap:round;stroke-linejoin:round;stroke-miterlimit:10;stroke-dasharray:none;stroke-opacity:1"
             id="path1383" /><path
             d="m 525.61,407.89 5.77,4.73"
             style="fill:#ff7f2a;stroke:#000000;stroke-width:0.75;stroke-linecap:round;stroke-linejoin:round;stroke-miterlimit:10;stroke-dasharray:none;stroke-opacity:1"
             id="path1385" /></g></g></g><g
       transform="translate(-274.59483,-62.016181)"
       id="g1387"><text
         id="text1391"
         style="font-variant:normal;font-weight:normal;font-size:12px;font-family:Helvetica;-inkscape-font-specification:Helvetica;writing-mode:lr-tb;fill:#000000;fill-opacity:1;fill-rule:nonzero;stroke:none"
         transform="matrix(1,0,0,-1,537.14,413.05)"><tspan
           id="tspan1389"
           sodipodi:role="line"
           y="0"
           x="0 3.336 9.3360004 16.007999 18.672001 25.344 28.68 35.352001 38.688 45.251999 52.584 59.256001 68.592003 75.264 81.935997 88.608002 95.279999 108.96 115.632 118.968">Isolate:AT4G335101.4%</tspan></text></g><path
       id="path1045"
       style="fill:#f87e15;fill-opacity:1;fill-rule:nonzero;stroke:#000000;stroke-width:0.75;stroke-linecap:round;stroke-linejoin:round;stroke-miterlimit:10;stroke-dasharray:none;stroke-opacity:1"
       d="m 274.04488,265.85951 -3.32527,3.56154 -3.45764,3.43396 -3.56982,3.31598 -3.69219,3.18821 -3.79455,3.06007 -3.90728,2.9121 -3.99983,2.77378 -4.10238,2.63564 -4.19511,2.48731 -4.27785,2.3388 -4.36059,2.1903 -4.43369,2.0216 -4.49643,1.87273 -4.56953,1.70404 -4.62228,1.55499 -41.34254,-131.24428 z" /><text
       style="line-height:1.25;font-family:Helvetica;font-size:16.00000040000000112px;-inkscape-font-specification:'Helvetica Bold';font-weight:bold;white-space:pre;shape-inside:url(#rect1593);"
       id="text1591"
       xml:space="preserve" /><g
       transform="translate(-202.14756,-126.23079)"
       id="g1297"><text
         id="text1301"
         style="font-variant:normal;font-weight:normal;font-size:12px;font-family:Helvetica;-inkscape-font-specification:Helvetica;writing-mode:lr-tb;fill:#000000;fill-opacity:1;fill-rule:nonzero;stroke:none"
         transform="matrix(1,0,0,-1,566.65,360.04)"><tspan
           id="tspan1299"
           sodipodi:role="line"
           y="0"
           x="0 6.5640001 13.896 20.568001 29.903999 36.576 43.248001 49.919998 56.591999 63.264 69.935997 79.751999 85.751999 99.431999 106.104 109.44">AT1G22410_myb2.1%</tspan></text></g><g
       transform="translate(-201.3243,-124.58427)"
       id="g1315"><text
         id="text1319"
         style="font-variant:normal;font-weight:normal;font-size:12px;font-family:Helvetica;-inkscape-font-specification:Helvetica;writing-mode:lr-tb;fill:#000000;fill-opacity:1;fill-rule:nonzero;stroke:none"
         transform="matrix(1,0,0,-1,562.26,372.15)"><tspan
           id="tspan1317"
           sodipodi:role="line"
           y="0"
           x="0 6.5640001 13.896 20.568001 29.903999 36.576 43.248001 49.919998 56.591999 63.264 69.935997 76.248001 76.248001 81.947998">AT1G22410_ev e 0.4%</tspan></text></g><g
       transform="translate(-202.97082,-119.64468)"
       id="g1333"><text
         id="text1337"
         style="font-variant:normal;font-weight:normal;font-size:12px;font-family:Helvetica;-inkscape-font-specification:Helvetica;writing-mode:lr-tb;fill:#000000;fill-opacity:1;fill-rule:nonzero;stroke:none"
         transform="matrix(1,0,0,-1,558.34,379.77)"><tspan
           id="tspan1335"
           sodipodi:role="line"
           y="0"
           x="0 6.5640001 13.896 20.568001 29.903999 36.576 43.248001 49.919998 56.591999 70.272003 76.944 80.279999">AT4G335101.5%</tspan></text></g><text
       style="line-height:1.25;font-family:Helvetica;font-size:16.00000040000000112px;-inkscape-font-specification:'Helvetica Bold';font-weight:bold;white-space:pre;shape-inside:url(#rect1599);"
       id="text1597"
       xml:space="preserve" /><g
       transform="translate(-208.8583,360.02202)"
       id="g1631" /><g
       transform="translate(-166.37198,-90.457982)"
       id="g1701"><text
         id="text1705"
         style="font-variant:normal;font-weight:normal;font-size:12px;font-family:Helvetica;-inkscape-font-specification:Helvetica;writing-mode:lr-tb;fill:#000000;fill-opacity:1;fill-rule:nonzero;stroke:none"
         transform="matrix(1,0,0,-1,495.31,377.21)"><tspan
           id="tspan1703"
           sodipodi:role="line"
           y="0"
           x="0 8.0039997 14.676 18.011999 22.368 28.368 35.040001 37.703999 44.375999">Botrydial 0.2%</tspan></text></g></g></svg>
