<?xml version="1.0" encoding="UTF-8" standalone="no"?>
<svg
   xmlns:dc="http://purl.org/dc/elements/1.1/"
   xmlns:cc="http://creativecommons.org/ns#"
   xmlns:rdf="http://www.w3.org/1999/02/22-rdf-syntax-ns#"
   xmlns:svg="http://www.w3.org/2000/svg"
   xmlns="http://www.w3.org/2000/svg"
   xmlns:sodipodi="http://sodipodi.sourceforge.net/DTD/sodipodi-0.dtd"
   xmlns:inkscape="http://www.inkscape.org/namespaces/inkscape"
   version="1.1"
   id="svg953"
   xml:space="preserve"
   width="672"
   height="672"
   viewBox="0 0 672 672"
   sodipodi:docname="Pie_chart_LM_edited.svg"
   inkscape:version="1.0 (4035a4f, 2020-05-01)"><metadata
     id="metadata959"><rdf:RDF><cc:Work
         rdf:about=""><dc:format>image/svg+xml</dc:format><dc:type
           rdf:resource="http://purl.org/dc/dcmitype/StillImage" /><dc:title></dc:title></cc:Work></rdf:RDF></metadata><defs
     id="defs957"><rect
       x="521.72153"
       y="36.1519"
       width="874.7342"
       height="590.48103"
       id="rect1648" /><rect
       x="-20.556963"
       y="455.79748"
       width="546.53166"
       height="368.6076"
       id="rect1642" /><rect
       x="-15.594937"
       y="473.519"
       width="515.34179"
       height="391.29115"
       id="rect1636" /><clipPath
       clipPathUnits="userSpaceOnUse"
       id="clipPath971"><path
         d="M 59.04,73.44 H 473.76 V 444.96 H 59.04 Z"
         id="path969" /></clipPath><clipPath
       clipPathUnits="userSpaceOnUse"
       id="clipPath989"><path
         d="M 59.04,73.44 H 473.76 V 444.96 H 59.04 Z"
         id="path987" /></clipPath><clipPath
       clipPathUnits="userSpaceOnUse"
       id="clipPath1007"><path
         d="M 59.04,73.44 H 473.76 V 444.96 H 59.04 Z"
         id="path1005" /></clipPath><clipPath
       clipPathUnits="userSpaceOnUse"
       id="clipPath1025"><path
         d="M 59.04,73.44 H 473.76 V 444.96 H 59.04 Z"
         id="path1023" /></clipPath><clipPath
       clipPathUnits="userSpaceOnUse"
       id="clipPath1043"><path
         d="M 59.04,73.44 H 473.76 V 444.96 H 59.04 Z"
         id="path1041" /></clipPath><clipPath
       clipPathUnits="userSpaceOnUse"
       id="clipPath1061"><path
         d="M 59.04,73.44 H 473.76 V 444.96 H 59.04 Z"
         id="path1059" /></clipPath></defs><sodipodi:namedview
     inkscape:document-rotation="0"
     pagecolor="#ffffff"
     bordercolor="#666666"
     borderopacity="1"
     objecttolerance="10"
     gridtolerance="10"
     guidetolerance="10"
     inkscape:pageopacity="0"
     inkscape:pageshadow="2"
     inkscape:window-width="1084"
     inkscape:window-height="855"
     id="namedview955"
     showgrid="false"
     inkscape:zoom="1.0580357"
     inkscape:cx="358.20281"
     inkscape:cy="355.84572"
     inkscape:window-x="372"
     inkscape:window-y="23"
     inkscape:window-maximized="0"
     inkscape:current-layer="g977" /><g
     id="g961"
     inkscape:groupmode="layer"
     inkscape:label="Pie_chart_LM"
     transform="matrix(1.3333333,0,0,-1.3333333,0,672)"><g
       id="g963" /><g
       id="g965"><g
         id="g967"
         clip-path="url(#clipPath971)"
         style="fill:#cc1030;fill-opacity:1"><path
           d="m 404,259.2 -0.08,4.64 -0.23,4.63 -0.39,4.62 -0.55,4.6 -0.7,4.58 -0.85,4.56 -1.01,4.53 -1.16,4.49 -1.31,4.44 -1.46,4.41 -1.61,4.34 -1.75,4.3 -1.89,4.23 -2.04,4.16 -2.18,4.1 L 266.4,259.2 Z"
           style="fill:#cc1030;fill-opacity:1;fill-rule:nonzero;stroke:#000000;stroke-width:0.75;stroke-linecap:round;stroke-linejoin:round;stroke-miterlimit:10;stroke-dasharray:none;stroke-opacity:1"
           id="path973" /><path
           d="m 399.63,293.61 6.66,1.72"
           style="fill:#cc1030;stroke:#000000;stroke-width:0.75;stroke-linecap:round;stroke-linejoin:round;stroke-miterlimit:10;stroke-dasharray:none;stroke-opacity:1;fill-opacity:1"
           id="path975" /></g></g><g
       id="g977"><text
         transform="scale(1,-1)"
         style="font-variant:normal;font-weight:normal;font-size:12px;font-family:Helvetica;-inkscape-font-specification:Helvetica;word-spacing:0px;writing-mode:lr-tb;fill:#000000;fill-opacity:1;fill-rule:nonzero;stroke:none"
         id="text981"
         x="410.9057"
         y="-293.91"><tspan
           x="410.9057 420.2417 426.9137 433.58569 440.25769 443.59369 449.59369 456.26569 469.94568"
           y="-293.91"
           sodipodi:role="line"
           id="tspan979">Genotype8%</tspan><tspan
           id="tspan899"
           x="410.9057 420.2417 426.9137 433.58569 440.25769 443.59369 449.59369 456.26569 469.94568"
           y="-293.91"
           sodipodi:role="line" /></text><text
         transform="scale(1,-1)"
         id="text905"
         y="-276.45569"
         x="413.26587"
         style="font-weight:bold;font-size:16px;line-height:1.25;font-family:Helvetica;-inkscape-font-specification:'Helvetica Bold';stroke-width:0.75"
         xml:space="preserve"><tspan
           style="stroke-width:0.75"
           y="-276.45569"
           x="413.26587"
           id="tspan903"
           sodipodi:role="line">***</tspan></text><text
         transform="scale(1,-1)"
         xml:space="preserve"
         style="font-weight:bold;font-size:16px;line-height:1.25;font-family:Helvetica;-inkscape-font-specification:'Helvetica Bold';stroke-width:0.75"
         x="445.11804"
         y="-341.94861"
         id="text905-6"><tspan
           sodipodi:role="line"
           id="tspan903-5"
           x="445.11804"
           y="-341.94861"
           style="stroke-width:0.75">***</tspan></text><text
         transform="scale(1,-1)"
         id="text905-0-7"
         y="-380.93591"
         x="471.18491"
         style="font-weight:bold;font-size:16px;line-height:1.25;font-family:Helvetica;-inkscape-font-specification:'Helvetica Bold';stroke-width:0.75"
         xml:space="preserve"><tspan
           style="stroke-width:0.75"
           y="-380.93591"
           x="471.18491"
           id="tspan903-3-6"
           sodipodi:role="line">*</tspan></text><text
         transform="scale(1,-1)"
         xml:space="preserve"
         style="font-weight:bold;font-size:16px;line-height:1.25;font-family:Helvetica;-inkscape-font-specification:'Helvetica Bold';stroke-width:0.75"
         x="467.64059"
         y="-327.06253"
         id="text905-0-7-2"><tspan
           sodipodi:role="line"
           id="tspan903-3-6-7"
           x="467.64059"
           y="-327.06253"
           style="stroke-width:0.75">*</tspan></text></g><g
       id="g983"><g
         id="g985"
         clip-path="url(#clipPath989)"><path
           d="m 386.79,325.83 -6.51,10.6 L 266.4,259.2 Z"
           style="fill:#ffff00;fill-opacity:1;fill-rule:nonzero;stroke:#000000;stroke-width:0.75;stroke-linecap:round;stroke-linejoin:round;stroke-miterlimit:10;stroke-dasharray:none;stroke-opacity:1"
           id="path991" /><path
           d="m 383.66,331.2 5.86,3.6"
           style="fill:none;stroke:#000000;stroke-width:0.75;stroke-linecap:round;stroke-linejoin:round;stroke-miterlimit:10;stroke-dasharray:none;stroke-opacity:1"
           id="path993" /></g></g><g
       id="g995"
       transform="translate(0,-4.2531647)"><text
         transform="matrix(1,0,0,-1,395.38,334.21)"
         style="font-variant:normal;font-weight:normal;font-size:12px;font-family:Helvetica;-inkscape-font-specification:Helvetica;writing-mode:lr-tb;fill:#000000;fill-opacity:1;fill-rule:nonzero;stroke:none"
         id="text999"><tspan
           x="0 3.336 9.3360004 16.007999 18.672001 25.344 28.68 42.360001 49.032001 52.368"
           y="0"
           sodipodi:role="line"
           id="tspan997">Isolate1.4%</tspan></text></g><g
       id="g1001"
       style="fill:#00c500;fill-opacity:1"><g
         id="g1003"
         clip-path="url(#clipPath1007)"
         style="fill:#00c500;fill-opacity:1"><path
           d="m 380.28,336.43 -3.54,4.98 -3.75,4.81 -3.97,4.65 L 266.4,259.2 Z"
           style="fill:#00c500;fill-opacity:1;fill-rule:nonzero;stroke:#000000;stroke-width:0.75;stroke-linecap:round;stroke-linejoin:round;stroke-miterlimit:10;stroke-dasharray:none;stroke-opacity:1"
           id="path1009" /><path
           d="m 374.89,343.84 5.43,4.23"
           style="fill:#00c500;stroke:#000000;stroke-width:0.75;stroke-linecap:round;stroke-linejoin:round;stroke-miterlimit:10;stroke-dasharray:none;stroke-opacity:1;fill-opacity:1"
           id="path1011" /></g></g><g
       id="g1013"
       transform="translate(1.3924044e-8,-3.5443039)"><text
         transform="matrix(1,0,0,-1,385.74,349.28)"
         style="font-variant:normal;font-weight:normal;font-size:12px;font-family:Helvetica;-inkscape-font-specification:Helvetica;writing-mode:lr-tb;fill:#000000;fill-opacity:1;fill-rule:nonzero;stroke:none"
         id="text1017"><tspan
           x="0 5.8920002 9.7679996 16.08 29.087999 35.759998 39.096001"
           y="0"
           sodipodi:role="line"
           id="tspan1015">Tray2.1%</tspan></text></g><g
       id="g1019"><g
         id="g1021"
         clip-path="url(#clipPath1025)"><path
           d="m 369.02,350.87 -2.18,2.38 L 266.4,259.2 Z"
           style="fill:#00ffff;fill-opacity:1;fill-rule:nonzero;stroke:#000000;stroke-width:0.75;stroke-linecap:round;stroke-linejoin:round;stroke-miterlimit:10;stroke-dasharray:none;stroke-opacity:1"
           id="path1027" /><path
           d="m 367.94,352.07 5.07,4.64"
           style="fill:none;stroke:#000000;stroke-width:0.75;stroke-linecap:round;stroke-linejoin:round;stroke-miterlimit:10;stroke-dasharray:none;stroke-opacity:1"
           id="path1029" /></g></g><g
       id="g1031"
       transform="translate(-3.5443039,2.1265823)"><text
         transform="matrix(1,0,0,-1,378.09,357.16)"
         style="font-variant:normal;font-weight:normal;font-size:12px;font-family:Helvetica;-inkscape-font-specification:Helvetica;writing-mode:lr-tb;fill:#000000;fill-opacity:1;fill-rule:nonzero;stroke:none"
         id="text1035"><tspan
           x="0 7.3319998 9.9960003 19.992001 33.672001 40.344002 43.68"
           y="0"
           sodipodi:role="line"
           id="tspan1033">Time0.4%</tspan></text></g><g
       id="g1037"
       style="fill:#f87e15;fill-opacity:1"><g
         id="g1039"
         clip-path="url(#clipPath1043)"
         style="fill:#f87e15;fill-opacity:1"><path
           d="m 366.84,353.25 -3.39,3.5 -3.52,3.37 -3.63,3.25 -3.75,3.12 -3.85,2.99 -3.96,2.84 -4.05,2.7 -4.15,2.56 -4.24,2.41 -4.32,2.26 -4.4,2.11 -4.47,1.94 -4.53,1.79 -4.6,1.62 -4.65,1.47 L 266.4,259.2 Z"
           style="fill:#f87e15;fill-opacity:1;fill-rule:nonzero;stroke:#000000;stroke-width:0.75;stroke-linecap:round;stroke-linejoin:round;stroke-miterlimit:10;stroke-dasharray:none;stroke-opacity:1"
           id="path1045" /><path
           d="m 338.62,376.32 3.61,5.86"
           style="fill:#f87e15;stroke:#000000;stroke-width:0.75;stroke-linecap:round;stroke-linejoin:round;stroke-miterlimit:10;stroke-dasharray:none;stroke-opacity:1;fill-opacity:1"
           id="path1047" /></g></g><g
       id="g1049"
       transform="translate(-2.8354431)"><text
         transform="matrix(1,0,0,-1,345.84,384.9)"
         style="font-variant:normal;font-weight:normal;font-size:12px;font-family:Helvetica;-inkscape-font-specification:Helvetica;writing-mode:lr-tb;fill:#000000;fill-opacity:1;fill-rule:nonzero;stroke:none"
         id="text1053"><tspan
           x="0 9.3360004 16.007999 22.68 29.351999 32.688 38.688 45.360001 52.032001 55.368 58.703999 64.704002 71.375999 74.040001 80.711998 84.047997 97.727997 104.4 107.736"
           y="0"
           sodipodi:role="line"
           id="tspan1051">Genotype:Isolate8.5%</tspan></text></g><path
       d="m 305.33,391.18 -4.19,1.16 -4.23,1.03 -4.26,0.9 -4.29,0.77 -4.3,0.62 -4.33,0.49 -4.34,0.36 -4.35,0.21 -4.35,0.08 -4.35,-0.06 -4.35,-0.2 -4.34,-0.33 -4.33,-0.47 -4.31,-0.61 -4.29,-0.75 -4.27,-0.88 -4.23,-1.01 -4.2,-1.15 -4.16,-1.28 -4.12,-1.41 -4.07,-1.54 -4.02,-1.67 -3.97,-1.8 -3.9,-1.92 -3.85,-2.04 -3.78,-2.16 -3.71,-2.28 -3.63,-2.4 -3.56,-2.51 -3.47,-2.63 -3.39,-2.73 -3.3,-2.83 -3.21,-2.94 -3.12,-3.05 -3.02,-3.13 -2.92,-3.23 -2.81,-3.33 -2.71,-3.41 -2.6,-3.49 -2.48,-3.57 -2.37,-3.65 -2.26,-3.73 -2.14,-3.79 -2.01,-3.86 -1.89,-3.92 -1.77,-3.98 -1.64,-4.03 -1.51,-4.08 -1.39,-4.13 -1.25,-4.17 -1.11,-4.21 -0.99,-4.24 -0.85,-4.27 -0.71,-4.3 -0.58,-4.31 -0.44,-4.33 -0.31,-4.34 -0.17,-4.35 -0.02,-4.36 0.1,-4.35 0.25,-4.35 0.38,-4.33 0.53,-4.33 0.65,-4.3 0.8,-4.28 0.92,-4.25 1.07,-4.23 1.19,-4.18 1.33,-4.15 1.46,-4.1 1.58,-4.06 1.72,-4 1.84,-3.94 1.96,-3.89 2.08,-3.82 2.21,-3.75 2.32,-3.69 2.44,-3.6 2.55,-3.53 2.66,-3.45 2.77,-3.35 2.88,-3.27 2.97,-3.18 3.08,-3.08 3.17,-2.99 3.26,-2.88 3.36,-2.77 3.44,-2.67 3.52,-2.56 3.6,-2.45 3.68,-2.33 3.75,-2.21 3.81,-2.1 3.89,-1.97 3.94,-1.85 4,-1.72 4.05,-1.59 4.1,-1.47 4.14,-1.34 4.18,-1.2 4.22,-1.07 4.26,-0.94 4.27,-0.8 4.31,-0.67 4.32,-0.53 4.33,-0.39 4.35,-0.25 4.35,-0.12 4.36,0.02 4.35,0.16 4.34,0.29 4.33,0.43 4.32,0.57 4.29,0.71 4.28,0.84 4.24,0.98 4.21,1.11 4.17,1.24 4.13,1.37 4.09,1.5 4.03,1.64 3.99,1.76 3.92,1.88 3.87,2.01 3.79,2.13 3.73,2.24 3.66,2.37 3.58,2.48 3.49,2.59 3.42,2.7 3.33,2.8 3.24,2.91 3.14,3.02 3.05,3.11 2.94,3.2 2.85,3.3 2.74,3.38 2.63,3.47 2.51,3.55 2.41,3.63 2.29,3.7 2.17,3.78 2.05,3.84 1.93,3.9 1.8,3.96 1.68,4.02 1.55,4.07 1.42,4.11 1.29,4.16 1.16,4.2 1.02,4.23 0.89,4.26 0.75,4.29 0.62,4.31 0.48,4.33 0.34,4.34 0.21,4.35 0.07,4.35 H 266.4 Z"
       style="fill:#e6e6e6;fill-opacity:1;fill-rule:nonzero;stroke:#000000;stroke-width:0.75;stroke-linecap:round;stroke-linejoin:round;stroke-miterlimit:10;stroke-dasharray:none;stroke-opacity:1"
       id="path1063" /><path
       d="m 156.19,176.81 -5.51,-4.12"
       style="fill:#cccccc;stroke:#000000;stroke-width:0.75;stroke-linecap:round;stroke-linejoin:round;stroke-miterlimit:10;stroke-dasharray:none;stroke-opacity:1"
       id="path1065" /><g
       id="g1067"><text
         transform="matrix(1,0,0,-1,44.46,164.38)"
         style="font-variant:normal;font-weight:normal;font-size:12px;font-family:Helvetica;-inkscape-font-specification:Helvetica;writing-mode:lr-tb;fill:#000000;fill-opacity:1;fill-rule:nonzero;stroke:none"
         id="text1071"><tspan
           x="0 8.6639996 15.336 21.336 24 30.672001 37.344002 44.015999 46.68 59.688 66.360001 73.031998 76.367996"
           y="0"
           sodipodi:role="line"
           id="tspan1069">Residuals79.6%</tspan></text></g><text
       xml:space="preserve"
       id="text1634"
       style="line-height:1.25;font-family:Helvetica;font-size:16.00000040000000112px;-inkscape-font-specification:'Helvetica Bold';font-weight:bold;white-space:pre;shape-inside:url(#rect1636);" /><text
       xml:space="preserve"
       id="text1640"
       style="line-height:1.25;font-family:Helvetica;font-size:16.00000040000000112px;-inkscape-font-specification:'Helvetica Bold';font-weight:bold;white-space:pre;shape-inside:url(#rect1642);" /><text
       xml:space="preserve"
       id="text1646"
       style="line-height:1.25;font-family:Helvetica;font-size:16.00000040000000112px;-inkscape-font-specification:'Helvetica Bold';font-weight:bold;white-space:pre;shape-inside:url(#rect1648);" /></g></svg>
