<?xml version="1.0" encoding="UTF-8" standalone="no"?>
<svg
   xmlns:dc="http://purl.org/dc/elements/1.1/"
   xmlns:cc="http://creativecommons.org/ns#"
   xmlns:rdf="http://www.w3.org/1999/02/22-rdf-syntax-ns#"
   xmlns:svg="http://www.w3.org/2000/svg"
   xmlns="http://www.w3.org/2000/svg"
   xmlns:sodipodi="http://sodipodi.sourceforge.net/DTD/sodipodi-0.dtd"
   xmlns:inkscape="http://www.inkscape.org/namespaces/inkscape"
   inkscape:version="1.0 (4035a4f, 2020-05-01)"
   sodipodi:docname="Pie_chart_LM_edited.svg"
   viewBox="0 0 672 672"
   height="672"
   width="672"
   xml:space="preserve"
   id="svg953"
   version="1.1"><metadata
     id="metadata959"><rdf:RDF><cc:Work
         rdf:about=""><dc:format>image/svg+xml</dc:format><dc:type
           rdf:resource="http://purl.org/dc/dcmitype/StillImage" /><dc:title></dc:title></cc:Work></rdf:RDF></metadata><defs
     id="defs957"><rect
       id="rect1648"
       height="590.48103"
       width="874.7342"
       y="36.1519"
       x="521.72153" /><rect
       id="rect1642"
       height="368.6076"
       width="546.53166"
       y="455.79748"
       x="-20.556963" /><rect
       id="rect1636"
       height="391.29115"
       width="515.34179"
       y="473.519"
       x="-15.594937" /><clipPath
       id="clipPath971"
       clipPathUnits="userSpaceOnUse"><path
         id="path969"
         d="M 59.04,73.44 H 473.76 V 444.96 H 59.04 Z" /></clipPath><clipPath
       id="clipPath989"
       clipPathUnits="userSpaceOnUse"><path
         id="path987"
         d="M 59.04,73.44 H 473.76 V 444.96 H 59.04 Z" /></clipPath><clipPath
       id="clipPath1007"
       clipPathUnits="userSpaceOnUse"><path
         id="path1005"
         d="M 59.04,73.44 H 473.76 V 444.96 H 59.04 Z" /></clipPath><clipPath
       id="clipPath1025"
       clipPathUnits="userSpaceOnUse"><path
         id="path1023"
         d="M 59.04,73.44 H 473.76 V 444.96 H 59.04 Z" /></clipPath><clipPath
       id="clipPath1043"
       clipPathUnits="userSpaceOnUse"><path
         id="path1041"
         d="M 59.04,73.44 H 473.76 V 444.96 H 59.04 Z" /></clipPath><clipPath
       id="clipPath1061"
       clipPathUnits="userSpaceOnUse"><path
         id="path1059"
         d="M 59.04,73.44 H 473.76 V 444.96 H 59.04 Z" /></clipPath></defs><sodipodi:namedview
     inkscape:current-layer="g1049"
     inkscape:window-maximized="0"
     inkscape:window-y="23"
     inkscape:window-x="52"
     inkscape:cy="406.8837"
     inkscape:cx="327.01294"
     inkscape:zoom="1.0580357"
     showgrid="false"
     id="namedview955"
     inkscape:window-height="855"
     inkscape:window-width="1404"
     inkscape:pageshadow="2"
     inkscape:pageopacity="0"
     guidetolerance="10"
     gridtolerance="10"
     objecttolerance="10"
     borderopacity="1"
     bordercolor="#666666"
     pagecolor="#ffffff" /><g
     transform="matrix(1.3333333,0,0,-1.3333333,0,672)"
     inkscape:label="Pie_chart_LM"
     inkscape:groupmode="layer"
     id="g961"><g
       id="g963" /><g
       id="g965"><g
         style="fill:#cc1030;fill-opacity:1"
         clip-path="url(#clipPath971)"
         id="g967"><path
           id="path973"
           style="fill:#cc1030;fill-opacity:1;fill-rule:nonzero;stroke:#000000;stroke-width:0.75;stroke-linecap:round;stroke-linejoin:round;stroke-miterlimit:10;stroke-dasharray:none;stroke-opacity:1"
           d="m 404,259.2 -0.08,4.64 -0.23,4.63 -0.39,4.62 -0.55,4.6 -0.7,4.58 -0.85,4.56 -1.01,4.53 -1.16,4.49 -1.31,4.44 -1.46,4.41 -1.61,4.34 -1.75,4.3 -1.89,4.23 -2.04,4.16 -2.18,4.1 L 266.4,259.2 Z" /><path
           id="path975"
           style="fill:#cc1030;stroke:#000000;stroke-width:0.75;stroke-linecap:round;stroke-linejoin:round;stroke-miterlimit:10;stroke-dasharray:none;stroke-opacity:1;fill-opacity:1"
           d="m 399.63,293.61 6.66,1.72" /></g></g><g
       id="g977"><text
         y="-293.91"
         x="410.9057"
         id="text981"
         style="font-variant:normal;font-weight:normal;font-size:12px;font-family:Helvetica;-inkscape-font-specification:Helvetica;writing-mode:lr-tb;fill:#000000;fill-opacity:1;fill-rule:nonzero;stroke:none"
         transform="scale(1,-1)"><tspan
           id="tspan979"
           sodipodi:role="line"
           y="-293.91"
           x="410.9057 420.2417 426.9137 433.58569 440.25769 443.59369 449.59369 456.26569 469.94568">Genotype8%</tspan></text></g><g
       id="g983"><g
         clip-path="url(#clipPath989)"
         id="g985"><path
           id="path991"
           style="fill:#ffff00;fill-opacity:1;fill-rule:nonzero;stroke:#000000;stroke-width:0.75;stroke-linecap:round;stroke-linejoin:round;stroke-miterlimit:10;stroke-dasharray:none;stroke-opacity:1"
           d="m 386.79,325.83 -6.51,10.6 L 266.4,259.2 Z" /><path
           id="path993"
           style="fill:none;stroke:#000000;stroke-width:0.75;stroke-linecap:round;stroke-linejoin:round;stroke-miterlimit:10;stroke-dasharray:none;stroke-opacity:1"
           d="m 383.66,331.2 5.86,3.6" /></g></g><g
       transform="translate(0,-4.2531647)"
       id="g995"><text
         id="text999"
         style="font-variant:normal;font-weight:normal;font-size:12px;font-family:Helvetica;-inkscape-font-specification:Helvetica;writing-mode:lr-tb;fill:#000000;fill-opacity:1;fill-rule:nonzero;stroke:none"
         transform="matrix(1,0,0,-1,395.38,334.21)"><tspan
           id="tspan997"
           sodipodi:role="line"
           y="0"
           x="0 3.336 9.3360004 16.007999 18.672001 25.344 28.68 42.360001 49.032001 52.368">Isolate1.4%</tspan></text></g><g
       style="fill:#00c500;fill-opacity:1"
       id="g1001"><g
         style="fill:#00c500;fill-opacity:1"
         clip-path="url(#clipPath1007)"
         id="g1003"><path
           id="path1009"
           style="fill:#00c500;fill-opacity:1;fill-rule:nonzero;stroke:#000000;stroke-width:0.75;stroke-linecap:round;stroke-linejoin:round;stroke-miterlimit:10;stroke-dasharray:none;stroke-opacity:1"
           d="m 380.28,336.43 -3.54,4.98 -3.75,4.81 -3.97,4.65 L 266.4,259.2 Z" /><path
           id="path1011"
           style="fill:#00c500;stroke:#000000;stroke-width:0.75;stroke-linecap:round;stroke-linejoin:round;stroke-miterlimit:10;stroke-dasharray:none;stroke-opacity:1;fill-opacity:1"
           d="m 374.89,343.84 5.43,4.23" /></g></g><g
       transform="translate(1.3924044e-8,-3.5443039)"
       id="g1013"><text
         id="text1017"
         style="font-variant:normal;font-weight:normal;font-size:12px;font-family:Helvetica;-inkscape-font-specification:Helvetica;writing-mode:lr-tb;fill:#000000;fill-opacity:1;fill-rule:nonzero;stroke:none"
         transform="matrix(1,0,0,-1,385.74,349.28)"><tspan
           id="tspan1015"
           sodipodi:role="line"
           y="0"
           x="0 5.8920002 9.7679996 16.08 29.087999 35.759998 39.096001">Tray2.1%</tspan></text></g><g
       id="g1019"><g
         clip-path="url(#clipPath1025)"
         id="g1021"><path
           id="path1027"
           style="fill:#00ffff;fill-opacity:1;fill-rule:nonzero;stroke:#000000;stroke-width:0.75;stroke-linecap:round;stroke-linejoin:round;stroke-miterlimit:10;stroke-dasharray:none;stroke-opacity:1"
           d="m 369.02,350.87 -2.18,2.38 L 266.4,259.2 Z" /><path
           id="path1029"
           style="fill:none;stroke:#000000;stroke-width:0.75;stroke-linecap:round;stroke-linejoin:round;stroke-miterlimit:10;stroke-dasharray:none;stroke-opacity:1"
           d="m 367.94,352.07 5.07,4.64" /></g></g><g
       transform="translate(-3.5443039,2.1265823)"
       id="g1031"><text
         id="text1035"
         style="font-variant:normal;font-weight:normal;font-size:12px;font-family:Helvetica;-inkscape-font-specification:Helvetica;writing-mode:lr-tb;fill:#000000;fill-opacity:1;fill-rule:nonzero;stroke:none"
         transform="matrix(1,0,0,-1,378.09,357.16)"><tspan
           id="tspan1033"
           sodipodi:role="line"
           y="0"
           x="0 7.3319998 9.9960003 19.992001 33.672001 40.344002 43.68">Time0.4%</tspan></text></g><g
       style="fill:#f87e15;fill-opacity:1"
       id="g1037"><g
         style="fill:#f87e15;fill-opacity:1"
         clip-path="url(#clipPath1043)"
         id="g1039"><path
           id="path1045"
           style="fill:#f87e15;fill-opacity:1;fill-rule:nonzero;stroke:#000000;stroke-width:0.75;stroke-linecap:round;stroke-linejoin:round;stroke-miterlimit:10;stroke-dasharray:none;stroke-opacity:1"
           d="m 366.84,353.25 -3.39,3.5 -3.52,3.37 -3.63,3.25 -3.75,3.12 -3.85,2.99 -3.96,2.84 -4.05,2.7 -4.15,2.56 -4.24,2.41 -4.32,2.26 -4.4,2.11 -4.47,1.94 -4.53,1.79 -4.6,1.62 -4.65,1.47 L 266.4,259.2 Z" /><path
           id="path1047"
           style="fill:#f87e15;stroke:#000000;stroke-width:0.75;stroke-linecap:round;stroke-linejoin:round;stroke-miterlimit:10;stroke-dasharray:none;stroke-opacity:1;fill-opacity:1"
           d="m 338.62,376.32 3.61,5.86" /></g></g><g
       transform="translate(-2.8354431)"
       id="g1049"><text
         id="text1053"
         style="font-variant:normal;font-weight:normal;font-size:12px;font-family:Helvetica;-inkscape-font-specification:Helvetica;writing-mode:lr-tb;fill:#000000;fill-opacity:1;fill-rule:nonzero;stroke:none"
         transform="matrix(1,0,0,-1,345.84,384.9)"><tspan
           id="tspan1051"
           sodipodi:role="line"
           y="0"
           x="0 9.3360004 16.007999 22.68 29.351999 32.688 38.688 45.360001 52.032001 55.368 58.703999 64.704002 71.375999 74.040001 80.711998 84.047997 97.727997 104.4 107.736">Genotype:Isolate8.5%</tspan></text></g><path
       id="path1063"
       style="fill:#e6e6e6;fill-opacity:1;fill-rule:nonzero;stroke:#000000;stroke-width:0.75;stroke-linecap:round;stroke-linejoin:round;stroke-miterlimit:10;stroke-dasharray:none;stroke-opacity:1"
       d="m 305.33,391.18 -4.19,1.16 -4.23,1.03 -4.26,0.9 -4.29,0.77 -4.3,0.62 -4.33,0.49 -4.34,0.36 -4.35,0.21 -4.35,0.08 -4.35,-0.06 -4.35,-0.2 -4.34,-0.33 -4.33,-0.47 -4.31,-0.61 -4.29,-0.75 -4.27,-0.88 -4.23,-1.01 -4.2,-1.15 -4.16,-1.28 -4.12,-1.41 -4.07,-1.54 -4.02,-1.67 -3.97,-1.8 -3.9,-1.92 -3.85,-2.04 -3.78,-2.16 -3.71,-2.28 -3.63,-2.4 -3.56,-2.51 -3.47,-2.63 -3.39,-2.73 -3.3,-2.83 -3.21,-2.94 -3.12,-3.05 -3.02,-3.13 -2.92,-3.23 -2.81,-3.33 -2.71,-3.41 -2.6,-3.49 -2.48,-3.57 -2.37,-3.65 -2.26,-3.73 -2.14,-3.79 -2.01,-3.86 -1.89,-3.92 -1.77,-3.98 -1.64,-4.03 -1.51,-4.08 -1.39,-4.13 -1.25,-4.17 -1.11,-4.21 -0.99,-4.24 -0.85,-4.27 -0.71,-4.3 -0.58,-4.31 -0.44,-4.33 -0.31,-4.34 -0.17,-4.35 -0.02,-4.36 0.1,-4.35 0.25,-4.35 0.38,-4.33 0.53,-4.33 0.65,-4.3 0.8,-4.28 0.92,-4.25 1.07,-4.23 1.19,-4.18 1.33,-4.15 1.46,-4.1 1.58,-4.06 1.72,-4 1.84,-3.94 1.96,-3.89 2.08,-3.82 2.21,-3.75 2.32,-3.69 2.44,-3.6 2.55,-3.53 2.66,-3.45 2.77,-3.35 2.88,-3.27 2.97,-3.18 3.08,-3.08 3.17,-2.99 3.26,-2.88 3.36,-2.77 3.44,-2.67 3.52,-2.56 3.6,-2.45 3.68,-2.33 3.75,-2.21 3.81,-2.1 3.89,-1.97 3.94,-1.85 4,-1.72 4.05,-1.59 4.1,-1.47 4.14,-1.34 4.18,-1.2 4.22,-1.07 4.26,-0.94 4.27,-0.8 4.31,-0.67 4.32,-0.53 4.33,-0.39 4.35,-0.25 4.35,-0.12 4.36,0.02 4.35,0.16 4.34,0.29 4.33,0.43 4.32,0.57 4.29,0.71 4.28,0.84 4.24,0.98 4.21,1.11 4.17,1.24 4.13,1.37 4.09,1.5 4.03,1.64 3.99,1.76 3.92,1.88 3.87,2.01 3.79,2.13 3.73,2.24 3.66,2.37 3.58,2.48 3.49,2.59 3.42,2.7 3.33,2.8 3.24,2.91 3.14,3.02 3.05,3.11 2.94,3.2 2.85,3.3 2.74,3.38 2.63,3.47 2.51,3.55 2.41,3.63 2.29,3.7 2.17,3.78 2.05,3.84 1.93,3.9 1.8,3.96 1.68,4.02 1.55,4.07 1.42,4.11 1.29,4.16 1.16,4.2 1.02,4.23 0.89,4.26 0.75,4.29 0.62,4.31 0.48,4.33 0.34,4.34 0.21,4.35 0.07,4.35 H 266.4 Z" /><path
       id="path1065"
       style="fill:#cccccc;stroke:#000000;stroke-width:0.75;stroke-linecap:round;stroke-linejoin:round;stroke-miterlimit:10;stroke-dasharray:none;stroke-opacity:1"
       d="m 156.19,176.81 -5.51,-4.12" /><g
       id="g1067"><text
         id="text1071"
         style="font-variant:normal;font-weight:normal;font-size:12px;font-family:Helvetica;-inkscape-font-specification:Helvetica;writing-mode:lr-tb;fill:#000000;fill-opacity:1;fill-rule:nonzero;stroke:none"
         transform="matrix(1,0,0,-1,44.46,164.38)"><tspan
           id="tspan1069"
           sodipodi:role="line"
           y="0"
           x="0 8.6639996 15.336 21.336 24 30.672001 37.344002 44.015999 46.68 59.688 66.360001 73.031998 76.367996">Residuals79.6%</tspan></text></g><text
       style="line-height:1.25;font-family:Helvetica;font-size:16.00000040000000112px;-inkscape-font-specification:'Helvetica Bold';font-weight:bold;white-space:pre;shape-inside:url(#rect1636);"
       id="text1634"
       xml:space="preserve" /><text
       style="line-height:1.25;font-family:Helvetica;font-size:16.00000040000000112px;-inkscape-font-specification:'Helvetica Bold';font-weight:bold;white-space:pre;shape-inside:url(#rect1642);"
       id="text1640"
       xml:space="preserve" /><text
       style="line-height:1.25;font-family:Helvetica;font-size:16.00000040000000112px;-inkscape-font-specification:'Helvetica Bold';font-weight:bold;white-space:pre;shape-inside:url(#rect1648);"
       id="text1646"
       xml:space="preserve" /></g></svg>
